<svg id="Capa_1" enable-background="new 0 0 511.999 511.999" height="512" viewBox="0 0 511.999 511.999" width="512" xmlns="http://www.w3.org/2000/svg"><g><path d="m400.382 338.221c56.637 0 103.532-45.257 104.112-101.892.712-69.526-65.286-117.742-129.147-100.794-7.45 1.977-15.12-2.076-17.93-9.254-15.857-40.514-55.283-69.21-101.417-69.21s-85.56 28.695-101.418 69.21c-2.81 7.179-10.48 11.231-17.931 9.254-63.81-16.931-129.806 31.187-129.146 100.713.538 56.667 47.445 101.973 104.114 101.973z" fill="#efedff"/><path d="m111.619 338.221h288.764c11.774 0 23.124-1.962 33.727-5.569l-6.139-28.95c-3.793-17.888-13.707-34.079-27.916-45.59-25.12-20.351-52.027-17.61-53.514-17.85-5.726-24.352-27.633-42.536-53.707-42.536h-73.666c-26.074 0-47.981 18.184-53.707 42.536-1.486.24-28.394-2.501-53.514 17.85-14.208 11.511-24.123 27.702-27.916 45.59l-6.139 28.949c10.601 3.608 21.952 5.57 33.727 5.57z" fill="#d4d4ff"/><path d="m292.833 227.726h-73.666c-13.899 0-25.166 11.267-25.166 25.166v39.001h123.998v-39.001c0-13.899-11.268-25.166-25.166-25.166z" fill="#807bcf"/><path d="m378.453 454.928c26.228 0 45.798-24.155 40.356-49.812l-20.187-95.19c-4.904-23.124-25.319-39.664-48.958-39.664h-187.33c-23.639 0-44.054 16.54-48.958 39.664l-20.187 95.19c-5.441 25.658 14.128 49.812 40.356 49.812 20.197 0 38.188-12.763 44.862-31.824l5.967-17.041c3.052-8.716 11.278-14.552 20.513-14.552h102.222c9.235 0 17.461 5.836 20.513 14.552l5.967 17.041c6.676 19.061 24.668 31.824 44.864 31.824z" fill="#a78cd6"/><path d="m162.335 270.262c-23.639 0-44.054 16.54-48.958 39.664l-20.187 95.19c-5.441 25.658 14.128 49.812 40.356 49.812 20.197 0 38.188-12.763 44.862-31.824l5.967-17.041c3.052-8.716 11.278-14.552 20.513-14.552h1.819c-29.342-15.709-34.091-85.421-22.65-121.249z" fill="#807bcf"/><g><g fill="#eda1ab"><ellipse cx="176.443" cy="181.003" rx="29.355" ry="23.377"/><ellipse cx="335.556" cy="181.003" rx="29.355" ry="23.377"/></g></g><path d="m331.861 355.484c4.142 0 7.5-3.358 7.5-7.5v-9.598h9.598c4.142 0 7.5-3.358 7.5-7.5s-3.358-7.5-7.5-7.5h-9.598v-9.598c0-4.142-3.358-7.5-7.5-7.5s-7.5 3.358-7.5 7.5v9.598h-9.598c-4.142 0-7.5 3.358-7.5 7.5s3.358 7.5 7.5 7.5h9.598v9.598c0 4.142 3.358 7.5 7.5 7.5zm-84.868-32.098c-4.142 0-7.5 3.358-7.5 7.5s3.358 7.5 7.5 7.5h18.014c4.142 0 7.5-3.358 7.5-7.5s-3.358-7.5-7.5-7.5zm265-86.98c.756-73.808-69.181-126.532-138.57-108.12-3.7.982-7.58-1.055-9.022-4.739-17.153-43.826-59.598-73.975-108.401-73.975-48.778 0-91.239 30.128-108.402 73.976-1.442 3.684-5.322 5.719-9.023 4.738-10.685-2.835-21.676-4.031-32.665-3.558-4.138.179-7.348 3.678-7.17 7.817.179 4.138 3.654 7.336 7.817 7.17 9.475-.41 18.952.624 28.171 3.07 11.075 2.941 22.615-2.979 26.838-13.769 14.929-38.142 51.884-64.444 94.434-64.444 42.572 0 79.513 26.322 94.434 64.443 4.223 10.789 15.761 16.708 26.837 13.769 59.907-15.897 120.377 29.67 119.723 93.468-.499 48.784-37.961 88.904-86.41 93.926l-4.625-21.808c-5.605-26.427-29.28-45.608-56.295-45.608h-24.166v-9.87c0-18.012-14.654-32.666-32.666-32.666h-73.666c-18.012 0-32.666 14.654-32.666 32.666v9.87h-24.166c-27.015 0-50.69 19.181-56.295 45.608l-4.625 21.808c-48.484-5.025-85.947-45.177-86.411-94.001-.371-39.12 22.824-74.141 59.092-89.22 3.825-1.59 5.636-5.98 4.046-9.805s-5.979-5.635-9.805-4.046c-41.938 17.438-68.76 57.951-68.331 103.214.533 56.224 43.559 102.116 98.284 108.599l-12.436 58.641c-6.437 30.353 16.729 58.868 47.693 58.868 23.351 0 44.224-14.807 51.941-36.846l5.967-17.04c1.996-5.701 7.395-9.531 13.435-9.531h102.223c6.04 0 11.439 3.83 13.435 9.53l5.967 17.041c7.717 22.039 28.59 36.846 51.941 36.846 19.753 0 37.434-11.8 45.043-30.063 1.593-3.823-.214-8.214-4.038-9.808-3.822-1.594-8.215.214-9.808 4.038-5.273 12.655-17.52 20.832-31.198 20.832-16.986 0-32.17-10.771-37.784-26.803l-5.967-17.042c-4.1-11.707-15.188-19.573-27.592-19.573h-102.223c-12.404 0-23.492 7.866-27.592 19.573l-5.967 17.041c-5.613 16.032-20.797 26.803-37.784 26.803-21.482 0-37.467-19.785-33.02-40.756l20.187-95.189c4.144-19.539 21.648-33.721 41.621-33.721h187.33c19.973 0 37.477 14.182 41.621 33.721l17.697 83.45c.859 4.052 4.844 6.641 8.893 5.781 4.052-.859 6.641-4.841 5.781-8.893l-9.945-46.895c55.223-6.497 97.711-52.587 98.283-108.518zm-201.494 26.356h-108.998v-9.87c0-9.741 7.925-17.666 17.666-17.666h73.666c9.741 0 17.666 7.925 17.666 17.666zm-116.948-96.762c4.142 0 7.5-3.358 7.5-7.5v-12c0-4.142-3.358-7.5-7.5-7.5s-7.5 3.358-7.5 7.5v12c0 4.142 3.358 7.5 7.5 7.5zm132.397-7.5v-12c0-4.142-3.358-7.5-7.5-7.5s-7.5 3.358-7.5 7.5v12c0 4.142 3.358 7.5 7.5 7.5s7.5-3.358 7.5-7.5zm-145.81 196.984c4.142 0 7.5-3.358 7.5-7.5v-9.598h9.598c4.142 0 7.5-3.358 7.5-7.5s-3.358-7.5-7.5-7.5h-9.598v-9.598c0-4.142-3.358-7.5-7.5-7.5s-7.5 3.358-7.5 7.5v9.598h-9.598c-4.142 0-7.5 3.358-7.5 7.5s3.358 7.5 7.5 7.5h9.598v9.598c0 4.142 3.358 7.5 7.5 7.5zm75.862-182.341c8.477 0 16.54-3.671 22.119-10.073 2.721-3.123 2.396-7.86-.727-10.582-3.124-2.721-7.861-2.396-10.582.727-2.729 3.132-6.669 4.928-10.81 4.928s-8.081-1.796-10.81-4.928c-2.722-3.123-7.459-3.447-10.582-.727-3.122 2.722-3.448 7.459-.727 10.582 5.579 6.401 13.641 10.073 22.119 10.073z"/></g></svg>